<mxfile host="app.diagrams.net" modified="2023-01-08T19:30:51.660Z" agent="5.0 (Windows NT 10.0; Win64; x64) AppleWebKit/537.36 (KHTML, like Gecko) Chrome/108.0.0.0 Safari/537.36 Edg/108.0.1462.76" version="20.6.1" etag="GYBUQFN3mQwIGGDAwnrj" type="github">
  <diagram id="miss4itNhXeyKSEiEY9H" name="第 1 页">
    <mxGraphModel dx="1133" dy="773" grid="1" gridSize="10" guides="1" tooltips="1" connect="1" arrows="1" fold="1" page="1" pageScale="1" pageWidth="827" pageHeight="1169" math="0" shadow="0">
      <root>
        <mxCell id="0" />
        <mxCell id="1" parent="0" />
        <mxCell id="I7SwKGLI5VaqfSaRgMoQ-2" value="AWS Cloud" style="points=[[0,0],[0.25,0],[0.5,0],[0.75,0],[1,0],[1,0.25],[1,0.5],[1,0.75],[1,1],[0.75,1],[0.5,1],[0.25,1],[0,1],[0,0.75],[0,0.5],[0,0.25]];outlineConnect=0;gradientColor=none;html=1;whiteSpace=wrap;fontSize=12;fontStyle=0;container=1;pointerEvents=0;collapsible=0;recursiveResize=0;shape=mxgraph.aws4.group;grIcon=mxgraph.aws4.group_aws_cloud_alt;strokeColor=#232F3E;fillColor=none;verticalAlign=top;align=left;spacingLeft=30;fontColor=#232F3E;dashed=0;" vertex="1" parent="1">
          <mxGeometry x="80" y="350" width="620" height="580" as="geometry" />
        </mxCell>
        <mxCell id="I7SwKGLI5VaqfSaRgMoQ-3" value="Region" style="points=[[0,0],[0.25,0],[0.5,0],[0.75,0],[1,0],[1,0.25],[1,0.5],[1,0.75],[1,1],[0.75,1],[0.5,1],[0.25,1],[0,1],[0,0.75],[0,0.5],[0,0.25]];outlineConnect=0;gradientColor=none;html=1;whiteSpace=wrap;fontSize=12;fontStyle=0;container=1;pointerEvents=0;collapsible=0;recursiveResize=0;shape=mxgraph.aws4.group;grIcon=mxgraph.aws4.group_region;strokeColor=#147EBA;fillColor=none;verticalAlign=top;align=left;spacingLeft=30;fontColor=#147EBA;dashed=1;" vertex="1" parent="I7SwKGLI5VaqfSaRgMoQ-2">
          <mxGeometry x="10" y="30" width="590" height="530" as="geometry" />
        </mxCell>
        <mxCell id="I7SwKGLI5VaqfSaRgMoQ-6" value="Amazon DynamoDB" style="sketch=0;outlineConnect=0;fontColor=#232F3E;gradientColor=none;strokeColor=#ffffff;fillColor=#232F3E;dashed=0;verticalLabelPosition=middle;verticalAlign=bottom;align=center;html=1;whiteSpace=wrap;fontSize=10;fontStyle=1;spacing=3;shape=mxgraph.aws4.productIcon;prIcon=mxgraph.aws4.dynamodb;" vertex="1" parent="I7SwKGLI5VaqfSaRgMoQ-3">
          <mxGeometry x="310" y="10" width="80" height="110" as="geometry" />
        </mxCell>
        <mxCell id="I7SwKGLI5VaqfSaRgMoQ-11" value="" style="sketch=0;points=[[0,0,0],[0.25,0,0],[0.5,0,0],[0.75,0,0],[1,0,0],[0,1,0],[0.25,1,0],[0.5,1,0],[0.75,1,0],[1,1,0],[0,0.25,0],[0,0.5,0],[0,0.75,0],[1,0.25,0],[1,0.5,0],[1,0.75,0]];outlineConnect=0;fontColor=#232F3E;gradientColor=#60A337;gradientDirection=north;fillColor=#277116;strokeColor=#ffffff;dashed=0;verticalLabelPosition=bottom;verticalAlign=top;align=center;html=1;fontSize=12;fontStyle=0;aspect=fixed;shape=mxgraph.aws4.resourceIcon;resIcon=mxgraph.aws4.s3;" vertex="1" parent="I7SwKGLI5VaqfSaRgMoQ-3">
          <mxGeometry x="259" y="350" width="78" height="78" as="geometry" />
        </mxCell>
        <mxCell id="I7SwKGLI5VaqfSaRgMoQ-12" value="" style="sketch=0;points=[[0,0,0],[0.25,0,0],[0.5,0,0],[0.75,0,0],[1,0,0],[0,1,0],[0.25,1,0],[0.5,1,0],[0.75,1,0],[1,1,0],[0,0.25,0],[0,0.5,0],[0,0.75,0],[1,0.25,0],[1,0.5,0],[1,0.75,0]];outlineConnect=0;fontColor=#232F3E;gradientColor=#60A337;gradientDirection=north;fillColor=#277116;strokeColor=#ffffff;dashed=0;verticalLabelPosition=bottom;verticalAlign=top;align=center;html=1;fontSize=12;fontStyle=0;aspect=fixed;shape=mxgraph.aws4.resourceIcon;resIcon=mxgraph.aws4.s3;" vertex="1" parent="I7SwKGLI5VaqfSaRgMoQ-3">
          <mxGeometry x="369" y="350" width="78" height="78" as="geometry" />
        </mxCell>
        <mxCell id="I7SwKGLI5VaqfSaRgMoQ-7" value="Amazon SQS" style="sketch=0;outlineConnect=0;fontColor=#232F3E;gradientColor=none;strokeColor=#ffffff;fillColor=#232F3E;dashed=0;verticalLabelPosition=middle;verticalAlign=bottom;align=center;html=1;whiteSpace=wrap;fontSize=10;fontStyle=1;spacing=3;shape=mxgraph.aws4.productIcon;prIcon=mxgraph.aws4.sqs;" vertex="1" parent="I7SwKGLI5VaqfSaRgMoQ-3">
          <mxGeometry x="310" y="130" width="80" height="100" as="geometry" />
        </mxCell>
        <mxCell id="I7SwKGLI5VaqfSaRgMoQ-10" value="Amazon SNS" style="sketch=0;outlineConnect=0;fontColor=#232F3E;gradientColor=none;strokeColor=#ffffff;fillColor=#232F3E;dashed=0;verticalLabelPosition=middle;verticalAlign=bottom;align=center;html=1;whiteSpace=wrap;fontSize=10;fontStyle=1;spacing=3;shape=mxgraph.aws4.productIcon;prIcon=mxgraph.aws4.sns;" vertex="1" parent="I7SwKGLI5VaqfSaRgMoQ-3">
          <mxGeometry x="310" y="240" width="80" height="100" as="geometry" />
        </mxCell>
        <mxCell id="I7SwKGLI5VaqfSaRgMoQ-4" value="VPC" style="points=[[0,0],[0.25,0],[0.5,0],[0.75,0],[1,0],[1,0.25],[1,0.5],[1,0.75],[1,1],[0.75,1],[0.5,1],[0.25,1],[0,1],[0,0.75],[0,0.5],[0,0.25]];outlineConnect=0;gradientColor=none;html=1;whiteSpace=wrap;fontSize=12;fontStyle=0;container=1;pointerEvents=0;collapsible=0;recursiveResize=0;shape=mxgraph.aws4.group;grIcon=mxgraph.aws4.group_vpc;strokeColor=#248814;fillColor=none;verticalAlign=top;align=left;spacingLeft=30;fontColor=#AAB7B8;dashed=0;" vertex="1" parent="I7SwKGLI5VaqfSaRgMoQ-3">
          <mxGeometry x="15" y="70" width="235" height="280" as="geometry" />
        </mxCell>
        <mxCell id="I7SwKGLI5VaqfSaRgMoQ-13" value="" style="rounded=1;whiteSpace=wrap;html=1;strokeColor=#FFCC99;fillColor=none;dashed=1;perimeterSpacing=0;strokeWidth=3;" vertex="1" parent="I7SwKGLI5VaqfSaRgMoQ-4">
          <mxGeometry x="15" y="30" width="205" height="220" as="geometry" />
        </mxCell>
        <UserObject label="Availability Zone A" placeholders="1" name="Variable" id="I7SwKGLI5VaqfSaRgMoQ-19">
          <mxCell style="text;html=1;strokeColor=none;fillColor=none;align=center;verticalAlign=middle;whiteSpace=wrap;overflow=hidden;dashed=1;strokeWidth=3;" vertex="1" parent="I7SwKGLI5VaqfSaRgMoQ-4">
            <mxGeometry x="52.5" y="250" width="127.5" height="20" as="geometry" />
          </mxCell>
        </UserObject>
        <mxCell id="I7SwKGLI5VaqfSaRgMoQ-5" value="Subnet 1" style="sketch=0;outlineConnect=0;gradientColor=none;html=1;whiteSpace=wrap;fontSize=12;fontStyle=0;shape=mxgraph.aws4.group;grIcon=mxgraph.aws4.group_subnet;strokeColor=#879196;fillColor=none;verticalAlign=top;align=left;spacingLeft=30;fontColor=#879196;dashed=0;" vertex="1" parent="I7SwKGLI5VaqfSaRgMoQ-4">
          <mxGeometry x="32.5" y="40" width="177.5" height="200" as="geometry" />
        </mxCell>
        <mxCell id="I7SwKGLI5VaqfSaRgMoQ-14" value="" style="rounded=1;whiteSpace=wrap;html=1;strokeColor=#FF3333;fillColor=none;dashed=1;perimeterSpacing=0;strokeWidth=3;" vertex="1" parent="I7SwKGLI5VaqfSaRgMoQ-4">
          <mxGeometry x="53.75" y="70" width="130" height="140" as="geometry" />
        </mxCell>
        <mxCell id="I7SwKGLI5VaqfSaRgMoQ-16" value="" style="sketch=0;points=[[0,0,0],[0.25,0,0],[0.5,0,0],[0.75,0,0],[1,0,0],[0,1,0],[0.25,1,0],[0.5,1,0],[0.75,1,0],[1,1,0],[0,0.25,0],[0,0.5,0],[0,0.75,0],[1,0.25,0],[1,0.5,0],[1,0.75,0]];outlineConnect=0;fontColor=#232F3E;gradientColor=#F78E04;gradientDirection=north;fillColor=#D05C17;strokeColor=#ffffff;dashed=0;verticalLabelPosition=bottom;verticalAlign=top;align=center;html=1;fontSize=12;fontStyle=0;aspect=fixed;shape=mxgraph.aws4.resourceIcon;resIcon=mxgraph.aws4.ec2;strokeWidth=3;" vertex="1" parent="I7SwKGLI5VaqfSaRgMoQ-4">
          <mxGeometry x="83.75" y="96" width="78" height="78" as="geometry" />
        </mxCell>
        <UserObject label="app" placeholders="1" name="Variable" id="I7SwKGLI5VaqfSaRgMoQ-20">
          <mxCell style="text;html=1;strokeColor=none;fillColor=none;align=center;verticalAlign=middle;whiteSpace=wrap;overflow=hidden;dashed=1;strokeWidth=3;" vertex="1" parent="I7SwKGLI5VaqfSaRgMoQ-4">
            <mxGeometry x="57.5" y="174" width="127.5" height="20" as="geometry" />
          </mxCell>
        </UserObject>
        <UserObject label="Security Group - wordfreq-dev-sg" placeholders="1" name="Variable" id="I7SwKGLI5VaqfSaRgMoQ-21">
          <mxCell style="text;html=1;strokeColor=none;fillColor=none;align=center;verticalAlign=middle;whiteSpace=wrap;overflow=hidden;dashed=1;strokeWidth=3;" vertex="1" parent="I7SwKGLI5VaqfSaRgMoQ-4">
            <mxGeometry x="30.25" y="210" width="185" height="20" as="geometry" />
          </mxCell>
        </UserObject>
        <mxCell id="I7SwKGLI5VaqfSaRgMoQ-29" value="wordfreq-dev" style="text;whiteSpace=wrap;html=1;" vertex="1" parent="I7SwKGLI5VaqfSaRgMoQ-4">
          <mxGeometry x="83.75" y="80" width="100" height="40" as="geometry" />
        </mxCell>
        <mxCell id="I7SwKGLI5VaqfSaRgMoQ-22" value="" style="html=1;endArrow=block;elbow=vertical;startArrow=none;endFill=1;strokeColor=#545B64;rounded=0;exitX=1.01;exitY=0.409;exitDx=0;exitDy=0;exitPerimeter=0;" edge="1" parent="I7SwKGLI5VaqfSaRgMoQ-3" source="I7SwKGLI5VaqfSaRgMoQ-14" target="I7SwKGLI5VaqfSaRgMoQ-6">
          <mxGeometry width="100" relative="1" as="geometry">
            <mxPoint x="360" y="130" as="sourcePoint" />
            <mxPoint x="460" y="130" as="targetPoint" />
          </mxGeometry>
        </mxCell>
        <mxCell id="I7SwKGLI5VaqfSaRgMoQ-23" value="" style="html=1;endArrow=block;elbow=vertical;startArrow=none;endFill=1;strokeColor=#545B64;rounded=0;exitX=1;exitY=0.5;exitDx=0;exitDy=0;" edge="1" parent="I7SwKGLI5VaqfSaRgMoQ-3" source="I7SwKGLI5VaqfSaRgMoQ-14" target="I7SwKGLI5VaqfSaRgMoQ-7">
          <mxGeometry width="100" relative="1" as="geometry">
            <mxPoint x="210.04999999999995" y="194.99" as="sourcePoint" />
            <mxPoint x="320" y="107.00800266755596" as="targetPoint" />
          </mxGeometry>
        </mxCell>
        <mxCell id="I7SwKGLI5VaqfSaRgMoQ-24" value="" style="html=1;endArrow=block;elbow=vertical;startArrow=none;endFill=1;strokeColor=#545B64;rounded=0;exitX=1;exitY=0.75;exitDx=0;exitDy=0;" edge="1" parent="I7SwKGLI5VaqfSaRgMoQ-3" source="I7SwKGLI5VaqfSaRgMoQ-14" target="I7SwKGLI5VaqfSaRgMoQ-10">
          <mxGeometry width="100" relative="1" as="geometry">
            <mxPoint x="200.04999999999995" y="184.99" as="sourcePoint" />
            <mxPoint x="310" y="97.00800266755596" as="targetPoint" />
          </mxGeometry>
        </mxCell>
        <mxCell id="I7SwKGLI5VaqfSaRgMoQ-25" value="" style="html=1;endArrow=block;elbow=vertical;startArrow=none;endFill=1;strokeColor=#545B64;rounded=0;exitX=0.999;exitY=0.898;exitDx=0;exitDy=0;entryX=0;entryY=0.75;entryDx=0;entryDy=0;entryPerimeter=0;exitPerimeter=0;" edge="1" parent="I7SwKGLI5VaqfSaRgMoQ-3" source="I7SwKGLI5VaqfSaRgMoQ-14" target="I7SwKGLI5VaqfSaRgMoQ-11">
          <mxGeometry width="100" relative="1" as="geometry">
            <mxPoint x="200.04999999999995" y="184.99" as="sourcePoint" />
            <mxPoint x="310" y="97.00800266755596" as="targetPoint" />
          </mxGeometry>
        </mxCell>
        <mxCell id="I7SwKGLI5VaqfSaRgMoQ-26" value="wordfreq-jobs" style="text;whiteSpace=wrap;html=1;" vertex="1" parent="I7SwKGLI5VaqfSaRgMoQ-3">
          <mxGeometry x="400" y="180" width="110" height="20" as="geometry" />
        </mxCell>
        <mxCell id="I7SwKGLI5VaqfSaRgMoQ-27" value="Processing Bucket" style="text;whiteSpace=wrap;html=1;" vertex="1" parent="I7SwKGLI5VaqfSaRgMoQ-3">
          <mxGeometry x="250" y="428" width="110" height="40" as="geometry" />
        </mxCell>
        <mxCell id="I7SwKGLI5VaqfSaRgMoQ-28" value="Uploading Bucket" style="text;whiteSpace=wrap;html=1;" vertex="1" parent="I7SwKGLI5VaqfSaRgMoQ-3">
          <mxGeometry x="369" y="428" width="110" height="40" as="geometry" />
        </mxCell>
        <mxCell id="I7SwKGLI5VaqfSaRgMoQ-30" value="wordfreq-results" style="text;whiteSpace=wrap;html=1;" vertex="1" parent="I7SwKGLI5VaqfSaRgMoQ-3">
          <mxGeometry x="395" y="140" width="120" height="30" as="geometry" />
        </mxCell>
        <mxCell id="I7SwKGLI5VaqfSaRgMoQ-33" value="Topic&lt;br&gt;&lt;div style=&quot;text-align: center;&quot;&gt;&lt;span style=&quot;color: rgb(0, 0, 0); text-align: left; background-color: initial;&quot;&gt;wordfreq-file-copied&lt;/span&gt;&lt;/div&gt;" style="sketch=0;outlineConnect=0;fontColor=#232F3E;gradientColor=none;strokeColor=#232F3E;fillColor=#ffffff;dashed=0;verticalLabelPosition=bottom;verticalAlign=top;align=center;html=1;fontSize=12;fontStyle=0;aspect=fixed;shape=mxgraph.aws4.resourceIcon;resIcon=mxgraph.aws4.topic;strokeWidth=3;" vertex="1" parent="I7SwKGLI5VaqfSaRgMoQ-3">
          <mxGeometry x="415" y="240" width="60" height="60" as="geometry" />
        </mxCell>
        <mxCell id="I7SwKGLI5VaqfSaRgMoQ-36" value="" style="html=1;endArrow=block;elbow=vertical;startArrow=none;endFill=1;strokeColor=#545B64;rounded=0;" edge="1" parent="I7SwKGLI5VaqfSaRgMoQ-3" source="I7SwKGLI5VaqfSaRgMoQ-33" target="I7SwKGLI5VaqfSaRgMoQ-26">
          <mxGeometry width="100" relative="1" as="geometry">
            <mxPoint x="510" y="240" as="sourcePoint" />
            <mxPoint x="619.95" y="143.02109369789923" as="targetPoint" />
          </mxGeometry>
        </mxCell>
        <mxCell id="I7SwKGLI5VaqfSaRgMoQ-43" value="subscription 2" style="text;whiteSpace=wrap;html=1;" vertex="1" parent="I7SwKGLI5VaqfSaRgMoQ-3">
          <mxGeometry x="470" y="240" width="110" height="20" as="geometry" />
        </mxCell>
        <mxCell id="I7SwKGLI5VaqfSaRgMoQ-47" value="" style="shape=image;html=1;verticalAlign=top;verticalLabelPosition=bottom;labelBackgroundColor=#ffffff;imageAspect=0;aspect=fixed;image=https://cdn2.iconfinder.com/data/icons/date-and-time-fill-outline/64/Calendar_month_date_schedule_event_notification-128.png;dashed=1;strokeColor=#FF3333;strokeWidth=3;fillColor=none;" vertex="1" parent="I7SwKGLI5VaqfSaRgMoQ-3">
          <mxGeometry x="272.5" y="450" width="45" height="45" as="geometry" />
        </mxCell>
        <mxCell id="I7SwKGLI5VaqfSaRgMoQ-48" value="Event notification&lt;br&gt;file-copied-ev" style="text;whiteSpace=wrap;html=1;align=center;" vertex="1" parent="I7SwKGLI5VaqfSaRgMoQ-3">
          <mxGeometry x="245" y="490" width="100" height="40" as="geometry" />
        </mxCell>
        <mxCell id="I7SwKGLI5VaqfSaRgMoQ-39" value="subscription 1" style="text;whiteSpace=wrap;html=1;" vertex="1" parent="I7SwKGLI5VaqfSaRgMoQ-3">
          <mxGeometry x="447" y="210" width="110" height="20" as="geometry" />
        </mxCell>
        <mxCell id="I7SwKGLI5VaqfSaRgMoQ-49" value="" style="endArrow=classic;html=1;rounded=0;exitX=1;exitY=0.5;exitDx=0;exitDy=0;edgeStyle=orthogonalEdgeStyle;" edge="1" parent="I7SwKGLI5VaqfSaRgMoQ-3" source="I7SwKGLI5VaqfSaRgMoQ-47" target="I7SwKGLI5VaqfSaRgMoQ-33">
          <mxGeometry width="50" height="50" relative="1" as="geometry">
            <mxPoint x="390" y="390" as="sourcePoint" />
            <mxPoint x="440" y="340" as="targetPoint" />
            <Array as="points">
              <mxPoint x="520" y="473" />
              <mxPoint x="520" y="270" />
            </Array>
          </mxGeometry>
        </mxCell>
        <mxCell id="I7SwKGLI5VaqfSaRgMoQ-41" value="" style="sketch=0;outlineConnect=0;fontColor=#232F3E;gradientColor=none;fillColor=#232F3D;strokeColor=none;dashed=0;verticalLabelPosition=bottom;verticalAlign=top;align=center;html=1;fontSize=12;fontStyle=0;aspect=fixed;pointerEvents=1;shape=mxgraph.aws4.email_2;strokeWidth=3;" vertex="1" parent="I7SwKGLI5VaqfSaRgMoQ-3">
          <mxGeometry x="538.61" y="214" width="41.39" height="26" as="geometry" />
        </mxCell>
        <mxCell id="I7SwKGLI5VaqfSaRgMoQ-42" value="" style="html=1;endArrow=block;elbow=vertical;startArrow=none;endFill=1;strokeColor=#545B64;rounded=0;exitX=0;exitY=0.75;exitDx=0;exitDy=0;" edge="1" parent="I7SwKGLI5VaqfSaRgMoQ-3" source="I7SwKGLI5VaqfSaRgMoQ-43" target="I7SwKGLI5VaqfSaRgMoQ-41">
          <mxGeometry width="100" relative="1" as="geometry">
            <mxPoint x="208.75" y="255" as="sourcePoint" />
            <mxPoint x="320" y="288.0991735537191" as="targetPoint" />
          </mxGeometry>
        </mxCell>
        <mxCell id="I7SwKGLI5VaqfSaRgMoQ-37" value="" style="html=1;endArrow=block;elbow=vertical;startArrow=none;endFill=1;strokeColor=#545B64;rounded=0;exitX=1.01;exitY=0.409;exitDx=0;exitDy=0;exitPerimeter=0;" edge="1" parent="1">
          <mxGeometry width="100" relative="1" as="geometry">
            <mxPoint x="290.04999999999995" y="577.26" as="sourcePoint" />
            <mxPoint x="400" y="480.2810936978992" as="targetPoint" />
          </mxGeometry>
        </mxCell>
      </root>
    </mxGraphModel>
  </diagram>
</mxfile>
